<?xml version="1.0" encoding="UTF-8" standalone="no"?>
<svg width="30px" height="30px" viewBox="0 0 30 30" version="1.1" xmlns="http://www.w3.org/2000/svg" xmlns:xlink="http://www.w3.org/1999/xlink">
	
    <g id="Page-1" stroke="none" stroke-width="1" fill="none" fill-rule="evenodd">
        <g id="Desktop-HD" transform="translate(-88.000000, -904.000000)" fill="#BEBEBE">
            <g id="Links" transform="translate(88.000000, 904.000000)">
                <path d="M14.999296,20 C12.260296,20 10.041296,17.762 10.041296,15 C10.041296,12.238 12.260296,10 14.999296,10 C17.738296,10 19.958296,12.238 19.958296,15 C19.958296,17.762 17.738296,20 14.999296,20 L14.999296,20 Z M29.007296,18.536 L26.684296,17.184 C26.814296,16.474 26.900296,15.749 26.900296,15 C26.900296,14.252 26.814296,13.526 26.684296,12.816 L29.007296,11.464 C29.956296,10.912 30.280296,9.688 29.732296,8.732 L27.749296,5.268 C27.202296,4.312 25.988296,3.983 25.040296,4.536 L22.693296,5.901 C21.597296,4.961 20.351296,4.192 18.966296,3.697 L18.966296,2 C18.966296,0.896 18.078296,0 16.982296,0 L13.016296,0 C11.920296,0 11.032296,0.896 11.032296,2 L11.032296,3.697 C9.64729602,4.192 8.40129602,4.961 7.30529602,5.901 L4.95829602,4.536 C4.01029602,3.983 2.79629602,4.312 2.24929602,5.268 L0.266296015,8.732 C-0.281703985,9.688 0.0432960152,10.912 0.991296015,11.464 L3.31429602,12.816 C3.18429602,13.526 3.09829602,14.252 3.09829602,15 C3.09829602,15.749 3.18429602,16.474 3.31429602,17.184 L0.991296015,18.536 C0.0432960152,19.088 -0.281703985,20.312 0.266296015,21.268 L2.24929602,24.732 C2.79629602,25.688 4.01029602,26.017 4.95829602,25.464 L7.30529602,24.099 C8.40129602,25.039 9.64729602,25.809 11.032296,26.303 L11.032296,28 C11.032296,29.104 11.920296,30 13.016296,30 L16.982296,30 C18.078296,30 18.966296,29.104 18.966296,28 L18.966296,26.303 C20.351296,25.809 21.597296,25.039 22.693296,24.099 L25.040296,25.464 C25.988296,26.017 27.202296,25.688 27.749296,24.732 L29.732296,21.268 C30.280296,20.312 29.956296,19.088 29.007296,18.536 L29.007296,18.536 Z M14.999296,12 C13.356296,12 12.024296,13.344 12.024296,15 C12.024296,16.657 13.356296,18 14.999296,18 C16.642296,18 17.974296,16.657 17.974296,15 C17.974296,13.344 16.642296,12 14.999296,12 L14.999296,12 Z" id="Fill-171"></path>
            </g>
        </g>
    </g>
</svg>