<?xml version="1.0" encoding="UTF-8" standalone="no"?>
<svg width="36px" height="30px" viewBox="0 0 36 30" version="1.1" xmlns="http://www.w3.org/2000/svg" xmlns:xlink="http://www.w3.org/1999/xlink">

    <title>github-character</title>
    <defs></defs>
    <g id="Page-1" stroke="none" stroke-width="1" fill="none" fill-rule="evenodd">
        <g id="Desktop-HD" transform="translate(-147.000000, -904.000000)" fill="#BDBDBD">
            <g id="Links" transform="translate(88.000000, 904.000000)">
                <g id="github-character" transform="translate(58.999405, 0.000000)">
                    <g id="Capa_1">
                        <g id="Group">
                            <path d="M32.4747395,8.24456576 C32.8573697,7.09652605 33.0489082,5.9064268 33.0489082,4.67382134 C33.0489082,3.03014888 32.687196,1.48563275 31.9647395,0.0404218362 C30.4489578,0.0404218362 29.1099752,0.316972705 27.9477916,0.869404467 C26.7862035,1.42198511 25.4614392,2.27918114 23.9741687,3.44099256 C22.1040447,2.98764268 20.1198015,2.76096774 18.0232258,2.76096774 C15.7276675,2.76096774 13.5384864,3.00908189 11.4557568,3.50493797 C9.9398263,2.31461538 8.60084367,1.43992556 7.43895782,0.880124069 C6.27707196,0.320322581 4.93109181,0.0404962779 3.4007196,0.0404962779 C2.67811414,1.4857072 2.31684864,3.03029777 2.31684864,4.67389578 C2.31684864,5.92086849 2.50801489,7.12526055 2.89064516,8.28692308 C0.963424318,10.5399752 0,13.3453102 0,16.7034491 C0,19.6509677 0.439057072,21.9956576 1.31769231,23.7387097 C1.78540943,24.65933 2.39449132,25.4740943 3.1455335,26.1827792 C3.89627792,26.8910174 4.75354839,27.4652605 5.71712159,27.9046154 C6.68084367,28.3435236 7.65119107,28.70866 8.62898263,28.9988337 C9.60669975,29.2891563 10.6869975,29.5019107 11.8701737,29.6359801 C13.0532754,29.7711663 14.0982134,29.859603 15.0049876,29.9024069 C15.9117618,29.9443921 16.9176179,29.9659057 18.0231514,29.9659057 C19.3264764,29.9659057 20.509206,29.9337469 21.5723821,29.870397 C22.6351861,29.8067494 23.8498511,29.6505707 25.2173449,29.403201 C26.5846154,29.1550868 27.7890819,28.8183127 28.8307444,28.3933995 C29.8721836,27.9684864 30.87134,27.3590323 31.8276923,26.5657816 C32.7840447,25.7720099 33.5312159,24.8299504 34.0699504,23.7387841 C34.9337717,21.981737 35.366129,19.6365261 35.366129,16.7035236 C35.3656079,13.3311663 34.4021092,10.5116129 32.4747395,8.24456576 L32.4747395,8.24456576 Z M29.9251861,23.7063275 C29.4716873,24.6346898 28.8977419,25.3637717 28.2035732,25.8956576 C27.5091067,26.4270968 26.6449132,26.8520099 25.6106948,27.1712159 C24.5759553,27.4899007 23.5846154,27.6987841 22.6351861,27.7976427 C21.6854591,27.8969479 20.6302481,27.9463772 19.4680645,27.9463772 L15.8973945,27.9463772 C14.7355831,27.9463772 13.6797767,27.8969479 12.7305707,27.7976427 C11.7812903,27.6987841 10.7895037,27.4899007 9.75506203,27.1712159 C8.72099256,26.8520099 7.85679901,26.4270968 7.16233251,25.8956576 C6.467866,25.3636973 5.89406948,24.6346898 5.44064516,23.7063275 C4.98729529,22.7779653 4.76054591,21.6907444 4.76054591,20.443995 C4.76054591,18.7432258 5.24940447,17.2977916 6.22719603,16.108139 C7.20491315,14.9178164 8.52960298,14.3228784 10.2014144,14.3228784 C10.8109429,14.3228784 12.1924318,14.4715385 14.3461042,14.7691563 C15.3520347,14.9249628 16.4644169,15.0029032 17.682804,15.0029032 C18.9015633,15.0029032 20.0137965,14.9251861 21.0195782,14.7691563 C23.2019851,14.471464 24.5830273,14.3228784 25.1643424,14.3228784 C26.8360794,14.3228784 28.1607692,14.9181141 29.1384864,16.108139 C30.1162779,17.2983127 30.6048387,18.7432258 30.6048387,20.443995 C30.6048387,21.6909677 30.3780893,22.7787841 29.9251861,23.7063275 L29.9251861,23.7063275 Z" id="Shape"></path>
                            <path d="M12.4224566,17.0858561 C11.9902481,16.6038462 11.4768238,16.3628784 10.8815881,16.3628784 C10.2862035,16.3628784 9.77270471,16.6041439 9.34057072,17.0858561 C8.90866005,17.5673449 8.60382134,18.1059305 8.42679901,18.7004218 C8.24940447,19.2961042 8.16096774,19.8768983 8.16096774,20.443995 C8.16096774,21.0104963 8.24962779,21.5913648 8.42679901,22.1869727 C8.60359801,22.7818362 8.90828784,23.3201241 9.34057072,23.8015385 C9.77292804,24.2835484 10.2862035,24.5245906 10.8815881,24.5245906 C11.4768238,24.5245906 11.9904715,24.2831017 12.4224566,23.8015385 C12.8545161,23.3200496 13.159206,22.7818362 13.3362283,22.1869727 C13.5133995,21.5913648 13.6020596,21.0104963 13.6020596,20.443995 C13.6020596,19.8774194 13.5136228,19.2961042 13.3362283,18.7004218 C13.1591315,18.1061538 12.8547395,17.5677916 12.4224566,17.0858561 L12.4224566,17.0858561 Z" id="Shape"></path>
                            <path d="M26.0248883,17.0858561 C25.5928288,16.6038462 25.0792556,16.3628784 24.4841687,16.3628784 C23.8893052,16.3628784 23.3754342,16.6041439 22.9431514,17.0858561 C22.5110918,17.5673449 22.2064764,18.1059305 22.0296774,18.7004218 C21.852134,19.2961042 21.7634739,19.8768983 21.7634739,20.443995 C21.7634739,21.0104963 21.852134,21.5913648 22.0296774,22.1869727 C22.2064764,22.7818362 22.5111663,23.3201241 22.9431514,23.8015385 C23.3755087,24.2835484 23.8893052,24.5245906 24.4841687,24.5245906 C25.0792556,24.5245906 25.5929032,24.2831017 26.0248883,23.8015385 C26.4567246,23.3200496 26.7615633,22.7818362 26.9388834,22.1869727 C27.1159801,21.5913648 27.2045658,21.0104963 27.2045658,20.443995 C27.2045658,19.8774194 27.1159801,19.2961042 26.9388834,18.7004218 C26.7616377,18.1061538 26.4567246,17.5677916 26.0248883,17.0858561 L26.0248883,17.0858561 Z" id="Shape"></path>
                        </g>
                    </g>
                </g>
            </g>
        </g>
    </g>
</svg>