<?xml version="1.0" encoding="UTF-8" standalone="no"?>
<svg width="100px" height="100px" viewBox="0 0 100 100" version="1.1" xmlns="http://www.w3.org/2000/svg" xmlns:xlink="http://www.w3.org/1999/xlink">

    <title>Logo</title>
    <defs></defs>
    <g id="Page-1" stroke="none" stroke-width="1" fill="none" fill-rule="evenodd" opacity="0.85">
        <g id="Desktop-HD" transform="translate(-88.000000, -70.000000)" fill="#ff7800">
            <path d="M138,70 C110.272727,70 88,92.2727273 88,120 C88,147.727273 110.272727,170 138,170 C165.727273,170 188,147.727273 188,120 C188,92.2727273 165.727273,70 138,70 L138,70 Z M120.5,116.590909 L126.181818,122.272727 C127.090909,123.181818 127.090909,124.545455 126.181818,125.454545 L123,128.636364 C122.090909,129.545455 120.727273,129.545455 119.818182,128.636364 L114.136364,122.954545 C110.5,119.318182 108.454545,114.545455 108.454545,109.318182 C108.454545,98.8636364 117.090909,90.2272727 127.545455,90.2272727 C132.545455,90.2272727 137.545455,92.2727273 141.181818,95.9090909 L146.863636,101.590909 C147.772727,102.5 147.772727,103.863636 146.863636,104.772727 L143.681818,107.954545 C142.772727,108.863636 141.409091,108.863636 140.5,107.954545 L134.818182,102.272727 C133,100.454545 130.5,99.3181818 127.772727,99.3181818 C122.318182,99.3181818 117.772727,103.863636 117.772727,109.318182 C117.545455,112.272727 118.681818,114.772727 120.5,116.590909 L120.5,116.590909 Z M148.454545,149.545455 C143.454545,149.545455 138.454545,147.5 134.818182,143.863636 L129.136364,138.181818 C128.227273,137.272727 128.227273,135.909091 129.136364,135 L132.318182,131.818182 C133.227273,130.909091 134.590909,130.909091 135.5,131.818182 L141.181818,137.5 C143,139.318182 145.5,140.454545 148.227273,140.454545 C153.681818,140.454545 158.227273,135.909091 158.227273,130.454545 C158.227273,127.727273 157.090909,125.227273 155.272727,123.409091 L149.590909,117.727273 C148.681818,116.818182 148.681818,115.454545 149.590909,114.545455 L152.772727,111.363636 C153.681818,110.454545 155.045455,110.454545 155.954545,111.363636 L161.636364,117.045455 C165.272727,120.681818 167.318182,125.454545 167.318182,130.681818 C167.545455,140.909091 158.909091,149.545455 148.454545,149.545455 L148.454545,149.545455 Z" id="Logo"></path>
        </g>
    </g>
</svg>