<svg id="Neshaani" xmlns="http://www.w3.org/2000/svg" viewBox="0 0 753.23 283.76"><title>Neshaani-vector</title><path d="M228.9,322.41a63.6,63.6,0,0,1,2.26-16.58,107.3,107.3,0,0,1,5.92-16.47,128.1,128.1,0,0,1,8.5-15.72q4.84-7.64,9.8-14.32a260.81,260.81,0,0,1,26.7-30.14q-3.23,0-9.8,4.41a140.41,140.41,0,0,0-15,11.95q-8.4,7.54-18.08,17.33T220,283.44q-9.58,10.77-18.41,21.64t-15.5,20.56a169,169,0,0,0-10.76,17.55q-4.09,7.86-4.09,12.16,0,2.37-3.12,2.8a11.63,11.63,0,0,1-6.78-1.4,18.67,18.67,0,0,1-6.78-6.35q-3.12-4.52-3.12-12.27,0-14.42,7.32-31.22A252.2,252.2,0,0,1,177,272.79q11-17.33,23.68-34.23t23.68-31.65q11-14.74,18.3-26.37t7.32-18.3q0-6.67-5.71-11.63t-16.25-5q-7.1,0-17.33,3.23a141,141,0,0,0-21.42,8.93A179.82,179.82,0,0,0,167,171.39a128.29,128.29,0,0,0-19.81,17.22A91.78,91.78,0,0,0,133,208.41a45.53,45.53,0,0,0-5.49,21.42q0,8.83,6.57,13.67t16.9,4.84a28.23,28.23,0,0,0,10.76-1.94,13.44,13.44,0,0,0,7.1-6.67,9.31,9.31,0,0,0,.75-6.89,24.6,24.6,0,0,0-2.69-6.24,25,25,0,0,0-3.44-4.52q-1.73-1.72-1.51-2.15a3.75,3.75,0,0,1,2.8-2.37,7.37,7.37,0,0,1,3.66.65,11.69,11.69,0,0,1,1.72,1.08c.14,0,.65.47,1.51,1.4a13.31,13.31,0,0,1,2.37,4.2,19.48,19.48,0,0,1,1.4,6.35,18.71,18.71,0,0,1-2,9.15,25.41,25.41,0,0,1-11.95,11.95,40.14,40.14,0,0,1-18.41,4.2,49.64,49.64,0,0,1-16.58-2.58,40.17,40.17,0,0,1-12.49-6.89,28.58,28.58,0,0,1-7.86-10.23,30.09,30.09,0,0,1-2.69-12.59,43.38,43.38,0,0,1,5.17-19.81,87.33,87.33,0,0,1,14.1-19.7,130.64,130.64,0,0,1,21.21-18.08,166.28,166.28,0,0,1,55.76-24.87,130.9,130.9,0,0,1,30.57-3.66q12.05,0,19.27,4.63a33.05,33.05,0,0,1,11,11.09,39.79,39.79,0,0,1,5,13.46A72.82,72.82,0,0,1,266.58,179q0,8.18-4.52,18.19a154.21,154.21,0,0,1-11.3,20.45q-6.78,10.44-14.64,20.56t-14.64,18.62q-6.78,8.51-11.3,14.64t-4.52,8.29q20.45-20,37.68-36,7.32-6.67,14.64-13.24T271.42,219q6.14-5.06,10.76-8.18t6.57-3.12a8.16,8.16,0,0,1,6.46,3,26.43,26.43,0,0,1,4.31,7.22,41.64,41.64,0,0,1,2.48,8.4,40.44,40.44,0,0,1,.75,6.79q0,3.45-3.77,9.27t-9.47,13.47q-5.71,7.65-12.27,16.59T265,290.85a127.33,127.33,0,0,0-9.47,19.07,50.32,50.32,0,0,0-3.77,18.43,161.39,161.39,0,0,0,2.91,30.6,114.91,114.91,0,0,0,8.5,27,58,58,0,0,0,14.1,19.4,28.76,28.76,0,0,0,19.48,7.43q11.19,0,18.3-4.33a38.51,38.51,0,0,0,18.3-23.61,10.82,10.82,0,0,1,1.08-3.68,8.72,8.72,0,0,1,2.48-2.71,8.14,8.14,0,0,1,4.84-1.19,3.42,3.42,0,0,1,3.44,1.83,12.48,12.48,0,0,1,1.08,4.2,23,23,0,0,1-.43,6,52.1,52.1,0,0,1-9.69,16.36,51.4,51.4,0,0,1-14.42,11.2q-9,4.95-22.82,5a50.64,50.64,0,0,1-26.37-7.54,76.14,76.14,0,0,1-22.28-20.78,108.94,108.94,0,0,1-15.5-31.43A129.9,129.9,0,0,1,228.9,322.41Z" transform="translate(-103.39 -138.12)"/><path d="M365.86,268.26a5.31,5.31,0,0,1,2.38-1.93,2.71,2.71,0,0,1,2.29.09,2.28,2.28,0,0,1,1.1,2,6.39,6.39,0,0,1-1.38,3.67q-.92,1.47-5,6.51t-10.09,11.74q-6.05,6.7-13.39,14.12a179.9,179.9,0,0,1-14.95,13.57A105.59,105.59,0,0,1,312,328.24q-7.25,4-13.11,4a17.94,17.94,0,0,1-8.8-2.93,21,21,0,0,1-6.05-6.7q-2.75-4.49-2.75-13.12a44.86,44.86,0,0,1,3.3-16.6,80.36,80.36,0,0,1,8.53-16,108.28,108.28,0,0,1,11.65-14.22,141.22,141.22,0,0,1,12.56-11.56,69.53,69.53,0,0,1,11.46-7.7q5.32-2.75,8.44-2.75a11.59,11.59,0,0,1,4,.83,10.42,10.42,0,0,1,4.13,3,18.55,18.55,0,0,1,3.3,6.24,33.78,33.78,0,0,1,1.38,10.64,20,20,0,0,1-2.94,9.63,62.12,62.12,0,0,1-7.52,10.46,114.62,114.62,0,0,1-10.18,10.18,134.1,134.1,0,0,1-11,8.8,80.4,80.4,0,0,1-9.9,6.14Q304,309,301.66,309a27.49,27.49,0,0,0-2.2,6.24,7.35,7.35,0,0,0,.46,4.22q.83,1.84,4.49,1.83,4.58,0,12.47-4.86a135.74,135.74,0,0,0,16.78-12.47,198.21,198.21,0,0,0,17.52-17.06A151.94,151.94,0,0,0,365.86,268.26Zm-30.45-4.77q-1.1,0-3.12,1.65a32.82,32.82,0,0,0-4.31,4.4q-2.3,2.75-5,6.24t-5.23,7q-6.05,8.63-13,19.26a82.06,82.06,0,0,0,16.14-12.2,88.75,88.75,0,0,0,10.82-12.56q4-5.87,5-9.81T335.41,263.49Z" transform="translate(-103.39 -138.12)"/><path d="M436.47,267a5.31,5.31,0,0,1,2.38-1.93,2.71,2.71,0,0,1,2.29.09,2.28,2.28,0,0,1,1.1,2,6.39,6.39,0,0,1-1.38,3.67q-1.1,1.84-3.76,5.5a49.35,49.35,0,0,1-7.34,7.8,61.15,61.15,0,0,1-12,8A64.58,64.58,0,0,1,400,298v1.28q-.19,10.27-3.12,16.69a27.66,27.66,0,0,1-7.25,10,25.25,25.25,0,0,1-9,5,30,30,0,0,1-8.35,1.38,18.22,18.22,0,0,1-4.59-.83,24.15,24.15,0,0,1-6-2.66,17.41,17.41,0,0,1-5.23-5,12.7,12.7,0,0,1-2.2-7.52,11.71,11.71,0,0,1,1.19-5.32,18.42,18.42,0,0,1,3.21-4.49,22.4,22.4,0,0,1,4.59-3.67,55.78,55.78,0,0,1,5.32-2.84,70.19,70.19,0,0,1,14.31-4.77q.92-6.23,1.47-13,.37-5.87.37-12.93a77.51,77.51,0,0,0-1.28-14,1.6,1.6,0,0,1-.18-.73v-1.83q-2.75,4.59-6.24,9.91T369.89,273a4.59,4.59,0,0,1-2.66,2.11,2.6,2.6,0,0,1-2.2-.37,2.63,2.63,0,0,1-.92-2,5,5,0,0,1,1-3q2.38-3.48,5.41-8.07t6-9.54q2.93-5,5.41-9.9a49.69,49.69,0,0,0,3.58-9q.37-1.65,1.1-3.94t1.56-4.22a7.48,7.48,0,0,1,1.93-2.84,1.78,1.78,0,0,1,2.38,0l4.4,3.39a44.91,44.91,0,0,1,5.41,5,31.76,31.76,0,0,1,4.59,6.33,15,15,0,0,1,1.93,7.34,14.44,14.44,0,0,1-1.28,6.33,71.84,71.84,0,0,0-2.84,7.06,79.59,79.59,0,0,0-2.93,12.2A157.22,157.22,0,0,0,400,291.74a59.55,59.55,0,0,0,20.73-8.44A57.65,57.65,0,0,0,436.47,267Zm-76.12,50.44a4.5,4.5,0,0,0,2.66,4.4,7.44,7.44,0,0,0,6.24-.18q3.58-1.47,7.43-6.14t6.05-13.67a78,78,0,0,0-11.19,4,38.2,38.2,0,0,0-7.7,4.86A8.44,8.44,0,0,0,360.35,317.42Z" transform="translate(-103.39 -138.12)"/><path d="M476.28,332.28a12.18,12.18,0,0,1-7.7-2.57,19.42,19.42,0,0,1-5.32-6.42,33.5,33.5,0,0,1-3-8.44,40.14,40.14,0,0,1-1-8.62,16.18,16.18,0,0,1,1.1-5.14,62,62,0,0,1,3-7q1.93-3.85,4.22-8t4.86-8.35q5.87-9.54,13.21-20.54-17.06,15.59-30.45,29.53-5.69,5.87-11.1,12t-9.72,11.83a82,82,0,0,0-6.88,10.46q-2.57,4.77-2.57,8.07,0,2.75-2.48,2.84a9,9,0,0,1-5.32-1.83,21.31,21.31,0,0,1-5.32-5.41,13.57,13.57,0,0,1-2.48-8.07q0-3.48,3-10.18t8-15.5q5-8.8,11.28-19.08t13-20.91q6.69-10.64,13-21t11.28-19.35q5-9,8-16t3-10.82q0-1.28,2.2-.64a13.59,13.59,0,0,1,5,3.12,23.53,23.53,0,0,1,5,6.69,21.15,21.15,0,0,1,2.2,9.9,22.48,22.48,0,0,1-2,7.89q-2,5-5.32,11.19t-7.52,13.11q-4.22,6.88-8.62,13.67-10.27,16-23.29,34.12Q460,271.2,470.22,262q4.4-3.85,8.8-7.61t8.25-6.69q3.85-2.93,6.79-4.77t4.4-1.83a6.72,6.72,0,0,1,4.68,1.74,12.71,12.71,0,0,1,3.12,4.59,27.59,27.59,0,0,1,1.74,6.24,41.76,41.76,0,0,1,.55,6.7q0,2.2-3.21,7.7t-7.61,12.47l-9.08,14.4A135,135,0,0,0,481,308.52a31.62,31.62,0,0,0-3.3,10.18q-.37,4,4,4,2,0,7.89-5.14A186.18,186.18,0,0,0,503,304.49q7.43-8,15.41-17.61a216.23,216.23,0,0,0,14-18.8,5.3,5.3,0,0,1,2.38-1.93,2.49,2.49,0,0,1,2.2.09,2.34,2.34,0,0,1,1,2,6.39,6.39,0,0,1-1.37,3.67q-.92,1.47-4.59,6.51t-9,11.74q-5.32,6.7-11.74,14.12T498.47,318a99.75,99.75,0,0,1-12.2,10.27Q480.49,332.28,476.28,332.28Z" transform="translate(-103.39 -138.12)"/><path d="M572.57,240.75a10.61,10.61,0,0,1,7.34,3,24.58,24.58,0,0,1,5.23,6.69,21.7,21.7,0,0,1,2.38,6.7q.46,3-1,3-5.32,0-12.56,4.6a99.21,99.21,0,0,0-14.67,11.59A187.13,187.13,0,0,0,545,291.46a143.48,143.48,0,0,0-11.37,15.09,52.29,52.29,0,0,0-6,11.59q-1.47,4.6,1.83,4.6,1.1,0,4.68-3.12t8.25-7.89q4.68-4.77,9.72-10.46t9.17-10.64q4.13-5,6.6-8.62t2.11-4.58q-.73-1.28,1.19-1.28a9.9,9.9,0,0,1,4.59,1.47,15.79,15.79,0,0,1,5,4.59,13.29,13.29,0,0,1,2.29,8.07A26.61,26.61,0,0,1,580.46,301q-2.57,5.78-5.32,10.64t-4.22,8.07q-1.47,3.21.73,3.21t7.89-5.14a178,178,0,0,0,12.84-13.12q7.15-8,14.86-17.61T621,268.26a5.3,5.3,0,0,1,2.38-1.93,2.71,2.71,0,0,1,2.29.09,2.27,2.27,0,0,1,1.1,2,6.39,6.39,0,0,1-1.38,3.67q-1.1,1.47-4.68,6.51T612,290.36q-5.14,6.7-11.37,14.12t-12.47,13.65a89.86,89.86,0,0,1-11.92,10.18q-5.69,4-9.91,4a9.86,9.86,0,0,1-5.5-1.83,20.38,20.38,0,0,1-4.77-4.4,27.08,27.08,0,0,1-3.3-5.32,11.2,11.2,0,0,1-1.28-4.4,15.46,15.46,0,0,1,.46-3.58c.3-1.28.64-2.48,1-3.58q.73-2,1.65-4-6.6,7.52-12.47,13.57-5,5.14-9.9,9.35t-7.52,4.22a11.78,11.78,0,0,1-5.5-1.56,22.44,22.44,0,0,1-5.59-4.31,22.71,22.71,0,0,1-4.4-6.7,21.77,21.77,0,0,1-1.74-8.9q0-5.32,3.39-12.56a99.46,99.46,0,0,1,8.9-15,149.45,149.45,0,0,1,12.57-15.41,155.89,155.89,0,0,1,14.31-13.67,85.75,85.75,0,0,1,14-9.72Q567.44,240.75,572.57,240.75Z" transform="translate(-103.39 -138.12)"/><path d="M661,240.75a10.61,10.61,0,0,1,7.34,3,24.58,24.58,0,0,1,5.23,6.69,21.7,21.7,0,0,1,2.38,6.7q.46,3-1,3-5.32,0-12.56,4.6a99.21,99.21,0,0,0-14.67,11.59,187.13,187.13,0,0,0-14.31,15.08A143.48,143.48,0,0,0,622,306.55a52.29,52.29,0,0,0-6,11.59q-1.47,4.6,1.83,4.6,1.1,0,4.68-3.12t8.25-7.89q4.68-4.77,9.72-10.46t9.17-10.64q4.13-5,6.6-8.62t2.11-4.58q-.73-1.28,1.19-1.28a9.9,9.9,0,0,1,4.59,1.47,15.79,15.79,0,0,1,5,4.59,13.29,13.29,0,0,1,2.29,8.07A26.61,26.61,0,0,1,668.87,301q-2.57,5.78-5.32,10.64t-4.22,8.07q-1.47,3.21.73,3.21t7.89-5.14a178,178,0,0,0,12.84-13.12q7.15-8,14.86-17.61t13.76-18.8a5.3,5.3,0,0,1,2.38-1.93,2.71,2.71,0,0,1,2.29.09,2.27,2.27,0,0,1,1.1,2,6.39,6.39,0,0,1-1.38,3.67q-1.1,1.47-4.68,6.51t-8.71,11.74q-5.14,6.7-11.37,14.12t-12.47,13.65a89.86,89.86,0,0,1-11.92,10.18q-5.69,4-9.91,4a9.86,9.86,0,0,1-5.5-1.83,20.38,20.38,0,0,1-4.77-4.4,27.08,27.08,0,0,1-3.3-5.32,11.2,11.2,0,0,1-1.28-4.4,15.46,15.46,0,0,1,.46-3.58c.3-1.28.64-2.48,1-3.58q.73-2,1.65-4-6.6,7.52-12.47,13.57-5,5.14-9.9,9.35t-7.52,4.22a11.78,11.78,0,0,1-5.5-1.56,22.44,22.44,0,0,1-5.59-4.31,22.71,22.71,0,0,1-4.4-6.7,21.77,21.77,0,0,1-1.74-8.9q0-5.32,3.39-12.56a99.46,99.46,0,0,1,8.9-15,149.45,149.45,0,0,1,12.57-15.41A155.89,155.89,0,0,1,635,254.14a85.75,85.75,0,0,1,14-9.72Q655.85,240.75,661,240.75Z" transform="translate(-103.39 -138.12)"/><path d="M740.78,332.28q-5.32,0-8.9-6.51t-3.58-17a22.42,22.42,0,0,1,1.19-6.7,65.66,65.66,0,0,1,3.12-7.89q1.93-4.13,4.31-8.53t5-8.62q6.05-9.72,13.57-20.36-1.47,0-6.42,4.59t-11.46,11.56q-6.51,7-13.67,15.41t-13.12,16.23q-6,7.8-9.9,13.77t-3.94,8.22q0,5.24-1.93,5.61t-4.31-2.24a24.36,24.36,0,0,1-4.31-7.52,28.19,28.19,0,0,1-1.93-10.41q0-3.67,2.66-9.17a123.93,123.93,0,0,1,6.7-11.92q4-6.42,8.8-13.39t8.8-13.57a107.16,107.16,0,0,0,6.69-12.66,27.1,27.1,0,0,0,2.66-10.64q0-2.38,2.11-2.29t4.59,2.48a22.61,22.61,0,0,1,4.58,7.15,28.53,28.53,0,0,1,2.11,11.56,17.29,17.29,0,0,1-1,6.14,37.64,37.64,0,0,1-2.11,4.68q-1.47,2.2-3.12,4.22,9.35-9.53,17.43-16.87,3.48-3.12,6.88-6.24t6.42-5.5a59.4,59.4,0,0,1,5.41-3.85,8,8,0,0,1,3.49-1.47,6.69,6.69,0,0,1,4.31,1.56,12.1,12.1,0,0,1,3.21,4.22,27.45,27.45,0,0,1,2,6,30.47,30.47,0,0,1,.73,6.6q0,2.2-3.12,7.8T767,279.45q-4.59,7.15-9.63,14.77t-8.9,13.94a84.22,84.22,0,0,0-5.59,10.46q-1.74,4.13.46,4.13,4,0,10.73-5.32a133.63,133.63,0,0,0,14.31-13.48q7.61-8.16,15.32-18.07t13.76-19.08a4.33,4.33,0,0,1,2.29-1.93A2.68,2.68,0,0,1,802,265a2.35,2.35,0,0,1,1,2,6.4,6.4,0,0,1-1.38,3.67q-.92,1.47-4.59,6.6t-8.9,11.92Q783,296,776.64,303.57a180.62,180.62,0,0,1-12.84,14,104.78,104.78,0,0,1-12.47,10.55Q745.36,332.28,740.78,332.28Z" transform="translate(-103.39 -138.12)"/><path d="M850.83,267.34a4.7,4.7,0,0,1,2.38-1.83,2.94,2.94,0,0,1,2.29.18,2.28,2.28,0,0,1,1.1,2,6.4,6.4,0,0,1-1.38,3.67q-.92,1.47-4.68,6.51t-9.08,11.74q-5.32,6.7-11.74,14.21T816.9,317.6a95.89,95.89,0,0,1-12.29,10.27q-5.87,4-10.09,4a14,14,0,0,1-8.62-2.48,17,17,0,0,1-5.14-6.24,25.75,25.75,0,0,1-2.38-8.16,36.11,36.11,0,0,1-.18-8.07,31.21,31.21,0,0,1,3.67-11.46q3.3-6.51,7.7-14t9.08-15.68a130.45,130.45,0,0,0,8-16.42,10.15,10.15,0,0,0,.73-2.75,15.37,15.37,0,0,1,.55-2.66A4.57,4.57,0,0,1,809,242a3.28,3.28,0,0,1,2.38-.73,7.57,7.57,0,0,1,3.85,1.38,14.09,14.09,0,0,1,4,4,22,22,0,0,1,2.93,6.7,25.61,25.61,0,0,1,.55,9.35q-.37,3.67-3.49,9.45T812,284.58q-4.13,6.6-8.35,13.3a91.22,91.22,0,0,0-6.6,12.2q-2.39,5.5-2.11,8.9t5,3.39q2,0,8-5.14a174,174,0,0,0,13.39-13.11q7.43-8,15.41-17.7A209.93,209.93,0,0,0,850.83,267.34Z" transform="translate(-103.39 -138.12)"/><path d="M821.39,149a35,35,0,1,0,35,35A34.9,34.9,0,0,0,821.39,149Zm-12.25,32.61,4,4a1.54,1.54,0,0,1,0,2.23L810.89,190a1.54,1.54,0,0,1-2.23,0l-4-4a13.39,13.39,0,0,1,9.39-22.91,13.63,13.63,0,0,1,9.55,4l4,4a1.54,1.54,0,0,1,0,2.23l-2.23,2.23a1.54,1.54,0,0,1-2.23,0l-4-4a7,7,0,0,0-4.93-2.07,7.06,7.06,0,0,0-7,7A6.38,6.38,0,0,0,809.14,181.61Zm19.57,23.07a13.63,13.63,0,0,1-9.55-4l-4-4a1.54,1.54,0,0,1,0-2.23l2.23-2.23a1.54,1.54,0,0,1,2.23,0l4,4a7,7,0,0,0,4.93,2.07,7.06,7.06,0,0,0,7-7,7,7,0,0,0-2.07-4.93l-4-4a1.54,1.54,0,0,1,0-2.23l2.23-2.23a1.54,1.54,0,0,1,2.23,0l4,4a13.35,13.35,0,0,1,4,9.55A13.17,13.17,0,0,1,828.7,204.68Z" transform="translate(-103.39 -138.12)"/></svg>