<?xml version="1.0" encoding="UTF-8" standalone="no"?>
<svg width="37px" height="30px" viewBox="0 0 37 30" version="1.1" xmlns="http://www.w3.org/2000/svg" xmlns:xlink="http://www.w3.org/1999/xlink">

    <title>twitter</title>
    <defs></defs>
    <g id="Page-1" stroke="none" stroke-width="1" fill="none" fill-rule="evenodd">
        <g id="Desktop-HD" transform="translate(-212.000000, -904.000000)" fill="#BDBDBD">
            <g id="Links" transform="translate(88.000000, 904.000000)">
                <g id="twitter" transform="translate(124.000000, 0.000000)">
                    <g id="Capa_1">
                        <path d="M36.746555,3.60366029 C35.3944019,4.20322967 33.9416268,4.60851675 32.4166507,4.79074163 C33.9730622,3.85772727 35.1684689,2.38033493 35.7314354,0.619808612 C34.2745694,1.48385167 32.6613158,2.11119617 30.9439952,2.44923445 C29.5688756,0.984043062 27.6094737,0.0686124402 25.4410766,0.0686124402 C21.2776077,0.0686124402 17.902177,3.44389952 17.902177,7.60729665 C17.902177,8.19818182 17.9688517,8.77356459 18.0973923,9.3254067 C11.8318421,9.01090909 6.27674641,6.00961722 2.5584689,1.44839713 C1.90952153,2.56184211 1.53767943,3.85686603 1.53767943,5.23851675 C1.53767943,7.85411483 2.86858852,10.1616746 4.89150718,11.5136124 C3.65569378,11.4744258 2.49322967,11.135311 1.47688995,10.570622 C1.47617225,10.6020574 1.47617225,10.6336364 1.47617225,10.6654306 C1.47617225,14.31811 4.07490431,17.3650478 7.52361244,18.0577751 C6.89110048,18.2299522 6.225,18.3223923 5.53744019,18.3223923 C5.05162679,18.3223923 4.57937799,18.2750239 4.11897129,18.18689 C5.07839713,21.181866 7.86251196,23.3618182 11.1615072,23.4224641 C8.58136364,25.4446651 5.33066986,26.6497608 1.79849282,26.6497608 C1.18995215,26.6497608 0.589880383,26.6141627 7.17703349e-05,26.5441866 C3.33638756,28.683445 7.2991866,29.9315311 11.5566029,29.9315311 C25.4234211,29.9315311 33.0064593,18.4438278 33.0064593,8.48138756 C33.0064593,8.15454545 32.9989952,7.82942584 32.9845694,7.50602871 C34.4577273,6.44318182 35.7358852,5.11543062 36.746555,3.60366029 L36.746555,3.60366029 Z" id="Shape"></path>
                    </g>
                </g>
            </g>
        </g>
    </g>
</svg>